<?xml version="1.0" encoding="utf-8"?>
<!-- Generator: Adobe Illustrator 24.0.1, SVG Export Plug-In . SVG Version: 6.00 Build 0)  -->
<svg version="1.1" id="Camada_1" xmlns="http://www.w3.org/2000/svg" xmlns:xlink="http://www.w3.org/1999/xlink" x="0px" y="0px"
	 viewBox="0 0 67.4 67.1" style="enable-background:new 0 0 67.4 67.1;" xml:space="preserve">
<path d="M24.1,63.9h19.2c8.8,0,14.1-9.9,9-17.2l-9.6-13.8c-4.4-6.3-13.6-6.3-18,0l-9.6,13.8C10.1,54,15.3,63.9,24.1,63.9z"/>
<path d="M21.8,24.6c3.7,0,6.8-4.9,6.8-11c0-6.1-3-11-6.8-11s-6.8,4.9-6.8,11C15.1,19.6,18.1,24.6,21.8,24.6z"/>
<path d="M45.6,24.6c3.7,0,6.8-4.9,6.8-11c0-6.1-3-11-6.8-11s-6.8,4.9-6.8,11S41.9,24.6,45.6,24.6z"/>
<path d="M12.9,30.1c0-4.7-2.4-8.5-5.2-8.5s-5.3,3.8-5.3,8.5c0,4.7,2.4,8.6,5.3,8.6S12.9,34.9,12.9,30.1z"/>
<path d="M65,30.1c0-4.7-2.3-8.5-5.3-8.5s-5.3,3.8-5.3,8.5c0,4.7,2.3,8.6,5.3,8.6S65,34.9,65,30.1z"/>
</svg>
