<svg xmlns="http://www.w3.org/2000/svg" xmlns:xlink="http://www.w3.org/1999/xlink" xml:space="preserve" version="1.1" style="shape-rendering:geometricPrecision;text-rendering:geometricPrecision;image-rendering:optimizeQuality;" viewBox="0 0 846.66 1058.325" x="0px" y="0px" fill-rule="evenodd" clip-rule="evenodd"><defs><style type="text/css">
   
    .fil0 {fill:black;fill-rule:nonzero}
   
  </style></defs><g><path class="fil0" d="M423.33 8.44c229.12,0 414.88,185.76 414.88,414.88 0,229.12 -185.76,414.88 -414.88,414.88 -229.12,0 -414.88,-185.75 -414.88,-414.88 0,-229.12 185.76,-414.88 414.88,-414.88zm187.98 567.27c-46.14,56.88 -114.71,89.74 -187.98,89.74 -133.71,0 -242.13,-108.42 -242.13,-242.13 0,-133.71 108.42,-242.13 242.13,-242.13 73.28,0 141.83,32.86 187.98,89.74l-64.19 52.19c-30.31,-37.37 -75.69,-58.94 -123.79,-58.94 -87.9,0 -159.14,71.24 -159.14,159.14 0,87.9 71.24,159.14 159.14,159.14 48.1,0 93.48,-21.57 123.79,-58.94l64.19 52.19zm-187.98 -484.28c-183.31,0 -331.89,148.58 -331.89,331.89 0,183.31 148.58,331.89 331.89,331.89 183.31,0 331.89,-148.58 331.89,-331.89 0,-183.31 -148.58,-331.89 -331.89,-331.89z"/></g><text x="0" y="861.66" fill="#000000" font-size="5px" font-weight="bold" font-family="'Helvetica Neue', Helvetica, Arial-Unicode, Arial, Sans-serif">Created by YANDI DESIGN</text><text x="0" y="866.66" fill="#000000" font-size="5px" font-weight="bold" font-family="'Helvetica Neue', Helvetica, Arial-Unicode, Arial, Sans-serif">from the Noun Project</text></svg>