<?xml version="1.0" encoding="utf-8"?>
<!-- Generator: Adobe Illustrator 24.0.1, SVG Export Plug-In . SVG Version: 6.00 Build 0)  -->
<svg version="1.1" id="Camada_1" xmlns="http://www.w3.org/2000/svg" xmlns:xlink="http://www.w3.org/1999/xlink" x="0px" y="0px"
	 viewBox="0 0 500 478" style="enable-background:new 0 0 500 478;" xml:space="preserve">
<style type="text/css">
	.st0{fill:#31BB45;}
</style>
<g>
	<g>
		<path class="st0" d="M338.2,348.6c-25.3,25.3-89.6,2-143.6-52s-77.3-118.3-52-143.6l26.2-26.2c4.6-4.6,12-4.6,16.6,0l26.8,26.8
			c4.6,4.6,4.6,12,0,16.6L194,188.4c-14.1,14.1-1.7,49.8,28.3,79.9c30,30.1,66.5,43.1,80.6,29l18.1-18.2c4.6-4.6,12-4.6,16.6,0
			l26.8,26.8c4.6,4.6,4.6,12,0,16.6L338.2,348.6z"/>
		<g>
			<path class="st0" d="M327.6,338c-0.6,0.5-3.8,3.1-1.7,1.6c2.2-1.5-1.5,0.9-2,1.2c-0.7,0.4-2.2,1.5-3.1,1.5c1.6,0,2.8-0.9,1.1-0.5
				c-0.9,0.2-1.7,0.6-2.5,0.8c-1.2,0.3-2.4,0.6-3.6,0.8c-4.2,0.9,2.3,0-1.2,0.2c-3.2,0.2-6.4,0.3-9.7,0.1c-1.4-0.1-2.9-0.3-4.3-0.4
				c4.2,0.4-1.2-0.3-2.2-0.5c-3.6-0.7-7.1-1.6-10.6-2.7s-7-2.3-10.5-3.6c-0.8-0.3-1.7-0.7-2.5-1c2.6,1.1-0.2-0.1-0.9-0.4
				c-2.2-1-4.3-2-6.4-3c-16.7-8.3-32.1-18.9-45.4-30.3c-8.2-7-15.9-14.4-23.3-22.2c-6.6-7-13.9-15.5-18.8-22.1
				c-5.5-7.5-10.7-15.2-15.3-23.3c-2.1-3.6-4.1-7.4-5.9-11.1c-0.8-1.7-1.7-3.4-2.4-5.2c0.1,0.2-1.8-4-0.9-2c0.7,1.7-0.7-1.7-0.8-2
				c-2.8-7-5-14.2-6.4-21.6c-0.2-1.3-0.8-5.1-0.4-1.6c-0.2-1.6-0.4-3.2-0.5-4.9c-0.2-3.2,0.1-6.4,0.1-9.6c0-1.4-0.6-1.5-0.2,1.1
				c-0.1-0.4,0.2-1.4,0.3-1.8c0.3-1.3,0.6-2.7,1-4c0.2-0.6,0.4-1.1,0.5-1.7c0.8-2.9-0.1,0.9-0.4,0.7c-0.2-0.1,1.8-3.6,2-3.8
				c0.3-0.5,0.7-0.9,0.9-1.4c0.9-1.7-0.7,0.2-0.8,1c0.2-0.8,1.7-2,2.3-2.5c0.7-0.7,1.3-1.3,2-2c7.2-7.2,14.4-14.4,21.5-21.5
				c0.4-0.4,2.4-1.9,2.5-2.5c0,0-1.4,0.6-2,0.9c1-0.4,2.4-0.1-0.2-0.1c-1.6-0.3-1.9-0.4-0.8-0.1c1,0.3,0.8,0.2-0.6-0.2
				c-0.1-0.5-1.2-1.1,0.4,0.6c1.4,1.5,3,3,4.4,4.4c3.9,3.9,7.9,7.9,11.8,11.8c2.7,2.7,5.5,6.6,8.6,8.6c0,0,0.5,0.6,0.6,0.6
				c-0.5,0.1-1-2-1-2.1c0.4,0.8,0.3,2.6,0.1-0.2c-0.1-1,1-2.5-0.1-0.2c-0.1,0.2,0.7-2.3,1-2.1c-0.1,0-0.7,0.7-0.8,0.8
				c-3.8,3.3-7.2,7.2-10.7,10.7c-2.6,2.6-5.4,5.1-7.8,7.9c-5.6,6.4-8.2,14-8.9,22.4c-1.5,16.3,5.9,33.4,14.2,47
				c11.3,18.7,26.7,34.6,44.2,47.6c22.9,17,59.8,33.9,83.7,9.9c3.8-3.8,7.7-7.7,11.5-11.5c1.3-1.3,2.7-2.5,3.9-3.9
				c0,0,0.8-0.7,0.8-0.8c0.1,0.4-2,1-2.1,1c2-0.9,0.3-0.5-0.9-0.2c-0.2,0-0.5-0.1-0.7-0.1c1.7,0.5,1.7,0.5,0,0
				c0-0.1-0.9-0.6-0.9-0.6s0.5,0.5,0.6,0.6c0.9,1.4,2.6,2.6,3.7,3.7c3.8,3.8,7.7,7.7,11.5,11.5c3.3,3.3,6.4,6.7,9.8,9.8
				c1.3,1.2,1.1,1.6,0.3-0.4c-0.7-1.7-0.1,3-0.1-0.8c0-1,1-2.4-0.1-0.2c0.3-0.7,1.2-1.9,0.8-1.9c-0.6,0-2,2-2.4,2.4
				c-1.8,1.8-3.6,3.6-5.3,5.3c-4.1,4.1-8.1,8.1-12.2,12.2C331.7,334,329.6,336,327.6,338c-5.7,5.7-5.7,15.5,0,21.2s15.5,5.7,21.2,0
				c6.6-6.6,13.2-13.2,19.8-19.8c2.4-2.4,5-4.8,7.3-7.4c9.4-10.8,8.8-26.4-0.9-36.8c-6.4-6.8-13.2-13.2-19.8-19.8
				c-2.3-2.3-4.5-4.7-6.9-6.9c-10.4-9.6-26-10.4-36.8-0.9c-6.7,5.9-12.9,12.6-19.1,19c-0.5,0.5-2.6,1.9-0.5,0.6
				c2.3-1.5-0.3,0.1-0.6,0.2c-2,0.8,1.3,0.1,1.2-0.4c0,0.1-4.2,1.4-4.3,1.2c-0.1-0.2,4.1-0.2,1.1-0.2c-1,0-2,0.1-3,0.1
				c-0.7,0-1.4,0-2.1-0.1c-0.3,0-3.7-0.5-1.3-0.1c2.6,0.4-1.2-0.3-1.4-0.3c-0.8-0.2-1.6-0.3-2.3-0.5c-2-0.5-4-1.1-6-1.8
				c-0.8-0.3-1.7-0.6-2.5-0.9c-4.1-1.5,2.5,1.3-1.5-0.6s-7.9-4-11.7-6.3c-4.1-2.5-9-5.9-11.6-7.9c-8.7-6.9-16.4-14.8-23.6-23.3
				c-1.9-2.2-4.9-6.5-7.3-10.1c-2.7-4.2-5.1-8.5-7.2-13c-0.4-0.8-0.8-1.7-1.1-2.5c1.1,2.6,0-0.1-0.2-0.8c-0.6-1.8-1.3-3.6-1.8-5.4
				c-0.5-1.7-0.8-3.5-1.2-5.2c-0.2-1-0.3-3.6,0,0.1c-0.1-1.1-0.2-2.1-0.2-3.2c0-1.5,0.2-3,0.1-4.5c-0.1-1.9-1.2,3.5,0,0.7
				c0.2-0.5,0.3-1.3,0.5-1.7c0.9-3.9-1.2,2,0.4-0.8c1.6-2.8-2.4,2.1,0.5-0.7c3.2-3.1,6.3-6.3,9.4-9.4c2.9-2.9,6-5.7,8.8-8.8
				c9.7-10.4,10.4-26,0.9-36.8c-6.2-7.1-13.4-13.5-20.1-20.2c-2.5-2.5-4.9-5.1-7.5-7.5c-9.2-8.6-23.1-10.6-33.8-3.3
				c-8.5,5.8-15.4,14.6-22.6,21.8c-7.7,7.7-14.7,14.9-18.7,25.3c-5.3,13.9-4,29.9-0.7,44.2c4.1,17.8,12.3,34.8,21.8,50.3
				c23,37.6,55.9,70.5,93.3,93.8c15.4,9.6,32.3,17.8,49.9,22.2c14.3,3.6,30.5,5.2,44.7,0.2c7.1-2.5,13.4-6.2,18.9-11.5
				c5.8-5.6,5.7-15.5,0-21.2C343,332.2,333.4,332.4,327.6,338z"/>
		</g>
	</g>
</g>
<g>
	<g>
		<g>
			<path class="st0" d="M105.4,407.9c37.5,34.5,84.9,55.7,135.7,60.4c43.8,4.1,88.5-5.3,127.2-25.9c75.4-40,123.1-121.8,120.8-207.1
				c-2.1-84.6-52.8-164-129.6-200.2c-38.7-18.3-82.3-26-124.9-20.7c-43.3,5.3-83.4,22.2-117.4,49.5C46.3,120.6,16.4,218.3,42,305.2
				c3.8,12.9,8.9,25.5,14.8,37.6c0-5,0-10.1,0-15.1C43.9,352.5,31,377.2,18.1,402c-1.9,3.6-3.7,7.1-5.6,10.7
				c-6,11.6,3.9,25.3,16.9,22c26.4-6.7,52.9-13.4,79.3-20.1c3.7-0.9,7.5-1.9,11.2-2.8c7.9-2,12.6-10.8,10.5-18.5
				c-2.2-8-10.6-12.5-18.5-10.5c-26.4,6.7-52.9,13.4-79.3,20.1c-3.7,0.9-7.5,1.9-11.2,2.8c5.6,7.3,11.3,14.7,16.9,22
				c11.7-22,23.2-44.1,34.7-66.3c2.6-4.9,5.1-9.8,7.7-14.7c0.6-1.1,1.2-2.3,1.8-3.4c0.4-0.8,0.6-1.2,1-2.2c2.7-6.7-0.2-12-3-18
				c-11.6-24.9-17.7-54-17.7-82.1c0-5.8,0.2-11.7,0.7-17.5c0.2-2.8,0.5-5.5,0.8-8.3c0.1-0.7,0.2-1.4,0.3-2.1c0,0.2-0.3,2.4-0.1,0.6
				c0.2-1.6,0.5-3.2,0.7-4.7c1.9-11.3,4.8-22.5,8.5-33.4c0.9-2.5,1.8-5,2.7-7.5c0.5-1.2,1-2.5,1.5-3.7c0.6-1.6-0.1,0.3-0.2,0.5
				c0.3-0.8,0.7-1.6,1.1-2.4c2.2-5,4.7-10,7.3-14.9c5.2-9.7,11.2-18.9,17.8-27.6c1-1.4-0.2,0.2-0.3,0.4c0.4-0.5,0.8-1,1.2-1.5
				c0.8-1,1.6-2,2.5-3.1c1.8-2.2,3.7-4.3,5.6-6.5c3.6-4.1,7.4-8,11.4-11.8c4.1-3.9,8.4-7.7,12.8-11.3c1-0.8,2-1.6,3.1-2.5
				c1.3-1.1-0.3,0.2-0.4,0.3c0.5-0.4,1-0.8,1.6-1.2c2.3-1.7,4.6-3.4,6.9-5c9.1-6.2,18.6-11.7,28.5-16.5c2.4-1.1,4.8-2.2,7.2-3.3
				c2.6-1.2-1.4,0.5,1.3-0.5c1.4-0.6,2.9-1.1,4.3-1.7c5.2-2,10.5-3.8,15.9-5.3c5.4-1.6,10.9-2.9,16.4-4.1c2.9-0.6,5.8-1.1,8.7-1.6
				c1.4-0.2,2.7-0.4,4.1-0.6c-2.8,0.4,1.2-0.1,2.2-0.3c11.6-1.3,23.3-1.7,34.9-1.1c5.8,0.3,11.5,0.8,17.3,1.5
				c-2.6-0.3,0.5,0.1,1.4,0.2c1.4,0.2,2.7,0.4,4,0.7c2.9,0.5,5.8,1.1,8.7,1.7c10.9,2.4,21.7,5.7,32.1,9.8c0.6,0.2,3.8,1.5,2.5,1
				s1.9,0.8,2.5,1.1c2.8,1.3,5.6,2.6,8.4,4c4.9,2.5,9.7,5.1,14.5,7.9c4.7,2.8,9.3,5.8,13.8,9c1.1,0.8,2.1,1.5,3.2,2.3
				c0.5,0.4,3.2,2.4,2.1,1.6s1.6,1.3,2.1,1.7c1.2,1,2.4,1.9,3.5,2.9c8.3,7,16.2,14.7,23.3,22.9c1.7,2,3.4,4,5.1,6
				c0.8,1,1.6,2,2.5,3.1c-1.7-2.1,0.7,1,1.2,1.7c3.3,4.4,6.3,8.9,9.2,13.6c3,4.8,5.9,9.8,8.5,14.9c1.2,2.4,2.4,4.7,3.5,7.1
				c0.6,1.2,1.1,2.4,1.7,3.6c0.3,0.6,0.5,1.2,0.8,1.8c0.1,0.3,1.2,2.8,0.5,1.3c-0.5-1.3,0.8,2,1,2.5c0.5,1.2,1,2.5,1.4,3.7
				c1,2.7,2,5.5,2.9,8.2c1.7,5.3,3.3,10.7,4.6,16.2c1.3,5.5,2.4,11.1,3.3,16.7c0.1,0.9,0.6,4.1,0.2,1.4c0.2,1.4,0.3,2.7,0.5,4.1
				c0.3,3,0.6,6,0.8,9c0.8,11.9,0.6,23.8-0.5,35.7c-0.1,1.4-0.3,2.7-0.4,4.1c-0.1,1-0.6,4.1-0.2,1.5c-0.4,2.9-0.9,5.9-1.4,8.8
				c-1,5.6-2.3,11.1-3.8,16.5s-3.1,10.7-5,16c-0.9,2.5-1.9,5-2.8,7.5c-0.2,0.6-0.5,1.2-0.8,1.9c0.1-0.2,0.9-2.1,0.2-0.5
				c-0.6,1.4-1.2,2.8-1.9,4.2c-4.6,10-9.9,19.7-16,28.8c-1.4,2.2-2.9,4.4-4.5,6.5c-0.8,1.1-1.5,2.1-2.3,3.2c-0.4,0.5-0.8,1-1.2,1.6
				c-1.4,1.8,1.4-1.7-0.1,0.1c-3.5,4.5-7.2,8.8-11.1,13c-7.4,8-15.4,15.4-24,22.3c-0.5,0.4-1,0.8-1.5,1.2c0.2-0.1,1.8-1.4,0.4-0.3
				c-1.1,0.8-2.1,1.6-3.2,2.3c-2.3,1.7-4.6,3.3-7,4.9c-4.6,3.1-9.2,5.9-14,8.6s-9.7,5.2-14.7,7.5c-1.2,0.6-2.4,1.1-3.6,1.6
				c-0.8,0.4-3.7,1.5-1.3,0.6c-2.7,1.1-5.4,2.1-8.1,3.1c-10.8,3.9-21.9,7-33.1,9.1c-2.7,0.5-5.4,0.9-8.1,1.4
				c-2.9,0.5,1.5-0.1-1.5,0.2c-1.6,0.2-3.2,0.4-4.8,0.5c-5.8,0.6-11.6,0.9-17.4,1c-6.7,0.1-13.4,0-20-0.5c-3.3-0.2-6.6-0.6-9.8-0.9
				c-1.8-0.2-0.4,0-0.1,0c-0.8-0.1-1.6-0.2-2.4-0.4c-1.9-0.3-3.7-0.6-5.6-0.9c-27.1-4.8-49.3-13.4-72.2-27.8
				c-5.3-3.3-10.4-6.9-15.4-10.7c-1.4-1-0.3-0.3,0,0c-0.6-0.5-1.2-1-1.8-1.5c-1.2-1-2.4-2-3.6-3c-2.6-2.2-5.1-4.4-7.6-6.7
				c-6-5.5-15.3-5.9-21.2,0C99.9,392.3,99.4,402.4,105.4,407.9z"/>
		</g>
	</g>
</g>
</svg>
